# File created by Blade
# Date/Time:  Wed Sep 24 19:10:19 2014
# Frame Rate: 120.000 fps
#------------------------------------------------------
:FULLY-SPECIFIED
:DEGREES
981
root -8.465299 33.121536 -3.617767 2.766534 5.767346 10.303891
Spine -2.742395 2.289188 -7.797631
Head 4.019588 -7.520597 5.256454
LeftShoulder -6.800503 13.433185 16.671144
LeftArm 21.076964 -22.586656 -66.357238
LeftForeArm 7.848857 -0.000000 65.319152
LeftHand -36.498715 -0.000000 48.510350
LeftHandThumb1 -26.253704 0.000000 33.147579
RightShoulder -18.573711 9.604243 -19.417582
RightArm -15.360153 -24.122837 88.188443
RightForeArm -23.095931 -0.000000 32.230552
RightHand -5.828563 0.000000 7.939293
RightHandThumb1 -24.326973 -0.000000 -32.862282
LeftUpLeg -94.217240 13.260935 -13.233647
LeftLeg 107.899059 -0.000000 -0.000000
LeftFoot 35.409756 12.751927 -19.355603
LeftToeBase 3.535500 -0.000000 -0.000000
RightUpLeg -7.674260 -8.540141 -3.077922
RightLeg 18.203945 -0.000000 -0.000000
RightFoot -13.877266 -11.920145 -6.786035
RightToeBase -2.284093 -0.000000 0.000000
982
root -8.453594 33.122467 -3.604254 2.744729 5.744295 10.298829
Spine -2.729001 2.404585 -7.784342
Head 4.089814 -7.521285 5.320706
LeftShoulder -6.822296 13.468372 16.671658
LeftArm 21.052477 -22.645582 -66.466325
LeftForeArm 8.003811 -0.000000 65.396644
LeftHand -36.364941 -0.000000 48.192647
LeftHandThumb1 -26.253704 0.000000 33.147579
RightShoulder -18.542784 9.686387 -19.438693
RightArm -15.275792 -24.147210 88.169538
RightForeArm -23.164005 0.000000 32.587621
RightHand -5.625110 -0.000000 7.920353
RightHandThumb1 -24.326973 -0.000000 -32.862282
LeftUpLeg -94.105402 13.233557 -12.766216
LeftLeg 109.842012 -0.000000 -0.000000
LeftFoot 35.861191 11.909456 -18.547492
LeftToeBase 3.776705 -0.000000 -0.000000
RightUpLeg -7.641388 -8.549611 -3.093001
RightLeg 18.220602 -0.000000 -0.000000
RightFoot -13.875267 -11.917381 -6.794473
RightToeBase -2.305965 -0.000000 0.000000
983
root -8.444061 33.122292 -3.592544 2.756293 5.721638 10.268552
Spine -2.766281 2.520570 -7.750053
Head 4.175052 -7.554835 5.369450
LeftShoulder -6.871281 13.505760 16.645697
LeftArm 21.104182 -22.730055 -66.561219
LeftForeArm 8.004921 -0.000000 65.430291
LeftHand -36.417936 -0.000000 48.575093
LeftHandThumb1 -26.253704 0.000000 33.147579
RightShoulder -18.539359 9.730476 -19.432819
RightArm -15.173967 -24.151436 88.111306
RightForeArm -23.375119 -0.000000 32.977151
RightHand -5.640026 -0.000000 8.092060
RightHandThumb1 -24.326973 -0.000000 -32.862282
LeftUpLeg -94.011890 13.187922 -12.239918
LeftLeg 111.935720 -0.000000 -0.000000
LeftFoot 36.395957 11.530474 -18.716393
LeftToeBase 3.119701 -0.000000 -0.000000
RightUpLeg -7.652168 -8.489722 -3.067617
RightLeg 18.243034 -0.000000 -0.000000
RightFoot -13.846943 -12.034778 -6.846073
RightToeBase -2.349834 -0.000000 0.000000
984
root -8.431859 33.123377 -3.581368 2.793157 5.674907 10.271636
Spine -2.842678 2.648990 -7.757207
Head 4.260569 -7.611856 5.383711
LeftShoulder -6.923008 13.539614 16.635981
LeftArm 21.150416 -22.830879 -66.713153
LeftForeArm 8.046439 0.000000 65.461668
LeftHand -36.389779 0.000000 48.459062
LeftHandThumb1 -26.253704 0.000000 33.147579
RightShoulder -18.566144 9.725037 -19.435696
RightArm -15.034835 -24.251615 88.094624
RightForeArm -23.417290 -0.000000 33.294533
RightHand -5.611770 -0.000000 7.984604
RightHandThumb1 -24.326973 -0.000000 -32.862282
LeftUpLeg -93.918663 13.146970 -11.752275
LeftLeg 114.140790 -0.000000 -0.000000
LeftFoot 36.785440 11.036752 -18.607956
LeftToeBase 3.391358 -0.000000 -0.000000
RightUpLeg -7.691293 -8.400871 -3.082666
RightLeg 18.282855 -0.000000 -0.000000
RightFoot -13.825355 -12.186368 -6.871952
RightToeBase -2.420615 -0.000000 0.000000
985
root -8.424161 33.124691 -3.568981 2.824059 5.634617 10.256428
Spine -2.925663 2.772630 -7.757502
Head 4.364238 -7.661258 5.441968
LeftShoulder -6.961652 13.625909 16.622332
LeftArm 21.234118 -22.943758 -66.840527
LeftForeArm 8.205024 0.000000 65.458149
LeftHand -36.409771 -0.000000 48.672275
LeftHandThumb1 -26.253704 0.000000 33.147579
RightShoulder -18.587077 9.713579 -19.411126
RightArm -14.898044 -24.308835 88.076788
RightForeArm -23.519992 -0.000000 33.589134
RightHand -5.563083 -0.000000 7.980947
RightHandThumb1 -24.326973 -0.000000 -32.862282
LeftUpLeg -93.785563 13.106864 -11.194470
LeftLeg 116.459246 -0.000000 -0.000000
LeftFoot 37.230881 10.442462 -18.680182
LeftToeBase 4.361368 -0.000000 -0.000000
RightUpLeg -7.715999 -8.408548 -3.061236
RightLeg 18.275128 -0.000000 -0.000000
RightFoot -13.815041 -12.163864 -6.870820
RightToeBase -2.361372 -0.000000 0.000000
986
root -8.408118 33.129496 -3.559412 2.894559 5.609477 10.308121
Spine -3.052048 2.858330 -7.835429
Head 4.482411 -7.688268 5.537424
LeftShoulder -7.010411 13.660959 16.609694
LeftArm 21.247447 -23.046784 -66.942215
LeftForeArm 8.265093 -0.000000 65.497801
LeftHand -36.489983 0.000000 48.276382
LeftHandThumb1 -26.253704 0.000000 33.147579
RightShoulder -18.599597 9.733586 -19.367993
RightArm -14.821537 -24.345209 88.055949
RightForeArm -23.633729 -0.000000 33.883653
RightHand -5.688774 -0.000000 7.848355
RightHandThumb1 -24.326973 -0.000000 -32.862282
LeftUpLeg -93.632350 13.016946 -10.722012
LeftLeg 118.795897 -0.000000 -0.000000
LeftFoot 37.732468 10.025851 -18.837541
LeftToeBase 4.277721 -0.000000 -0.000000
RightUpLeg -7.776507 -8.316705 -3.124631
RightLeg 18.306300 -0.000000 -0.000000
RightFoot -13.788971 -12.342710 -6.915904
RightToeBase -2.342324 -0.000000 0.000000
987
root -8.393912 33.133819 -3.550738 2.982586 5.610163 10.348092
Spine -3.202677 2.890813 -7.909647
Head 4.604306 -7.711801 5.637989
LeftShoulder -7.060708 13.690360 16.613287
LeftArm 21.204148 -23.170333 -67.029836
LeftForeArm 8.324402 -0.000000 65.547849
LeftHand -36.463658 -0.000000 48.338610
LeftHandThumb1 -26.253704 0.000000 33.147579
RightShoulder -18.578631 9.795764 -19.302422
RightArm -14.821106 -24.326068 88.029971
RightForeArm -23.716380 -0.000000 34.205862
RightHand -5.660723 -0.000000 7.954380
RightHandThumb1 -24.326973 -0.000000 -32.862282
LeftUpLeg -93.475041 12.900149 -10.239207
LeftLeg 121.191942 -0.000000 -0.000000
LeftFoot 38.117887 9.263503 -18.504156
LeftToeBase 4.207516 -0.000000 -0.000000
RightUpLeg -7.848731 -8.335827 -3.164168
RightLeg 18.299222 -0.000000 -0.000000
RightFoot -13.794411 -12.347834 -6.919377
RightToeBase -2.302989 -0.000000 0.000000
988
root -8.381501 33.139210 -3.543642 3.093028 5.605126 10.382362
Spine -3.387669 2.925699 -7.980412
Head 4.732279 -7.722131 5.743545
LeftShoulder -7.091126 13.710690 16.604154
LeftArm 21.101467 -23.260813 -67.046425
LeftForeArm 8.395880 -0.000000 65.622006
LeftHand -36.387649 -0.000000 48.131031
LeftHandThumb1 -26.253704 0.000000 33.147579
RightShoulder -18.562924 9.798052 -19.229808
RightArm -14.772991 -24.317888 87.999947
RightForeArm -23.898518 -0.000000 34.467407
RightHand -5.701536 0.000000 7.761877
RightHandThumb1 -24.326973 -0.000000 -32.862282
LeftUpLeg -93.314246 12.787983 -9.766898
LeftLeg 123.580605 -0.000000 -0.000000
LeftFoot 38.496931 8.404133 -18.098333
LeftToeBase 5.930442 -0.000000 -0.000000
RightUpLeg -7.935655 -8.319531 -3.195061
RightLeg 18.278097 -0.000000 -0.000000
RightFoot -13.750575 -12.408700 -6.949565
RightToeBase -2.316060 -0.000000 0.000000
989
root -8.362828 33.148502 -3.538706 3.221150 5.616149 10.493169
Spine -3.582118 2.953097 -8.147357
Head 4.856047 -7.765609 5.851804
LeftShoulder -7.102500 13.784851 16.605155
LeftArm 21.057939 -23.337838 -67.046520
LeftForeArm 8.479093 -0.000000 65.679490
LeftHand -36.452203 -0.000000 48.254778
LeftHandThumb1 -26.253704 0.000000 33.147579
RightShoulder -18.612723 9.700125 -19.135320
RightArm -14.578438 -24.331419 87.965642
RightForeArm -23.946523 -0.000000 34.618961
RightHand -5.678700 -0.000000 7.742520
RightHandThumb1 -24.326973 -0.000000 -32.862282
LeftUpLeg -93.090514 12.640094 -9.350371
LeftLeg 125.931399 -0.000000 -0.000000
LeftFoot 39.007242 7.598067 -17.999630
LeftToeBase 6.401122 -0.000000 -0.000000
RightUpLeg -7.990229 -8.142951 -3.310175
RightLeg 18.176299 -0.000000 -0.000000
RightFoot -13.700307 -12.651963 -6.909565
RightToeBase -2.226244 -0.000000 0.000000
990
root -8.354247 33.155015 -3.536682 3.353808 5.648641 10.513612
Spine -3.773676 2.945674 -8.210552
Head 4.948366 -7.797692 5.949364
LeftShoulder -7.131002 13.823138 16.597720
LeftArm 20.981534 -23.437092 -67.028970
LeftForeArm 8.279614 -0.000000 65.737451
LeftHand -36.398616 0.000000 48.613608
LeftHandThumb1 -26.253704 0.000000 33.147579
RightShoulder -18.653586 9.713732 -19.071561
RightArm -14.515360 -24.326713 87.959583
RightForeArm -24.034399 0.000000 34.762446
RightHand -5.515338 -0.000000 7.969026
RightHandThumb1 -24.326973 -0.000000 -32.862282
LeftUpLeg -92.860038 12.494015 -8.804946
LeftLeg 128.267758 -0.000000 -0.000000
LeftFoot 39.563333 6.446741 -17.661594
LeftToeBase 6.319010 -0.000000 -0.000000
RightUpLeg -8.087828 -8.054175 -3.316531
RightLeg 18.120768 -0.000000 -0.000000
RightFoot -13.624427 -12.823291 -6.890667
RightToeBase -2.209381 -0.000000 0.000000
